<?xml version="1.0" encoding="iso-8859-1"?>
<!-- Generator: Adobe Illustrator 19.0.0, SVG Export Plug-In . SVG Version: 6.00 Build 0)  -->
<svg version="1.1" id="Layer_1" xmlns="http://www.w3.org/2000/svg" xmlns:xlink="http://www.w3.org/1999/xlink" x="0px" y="0px"
	 viewBox="0 0 297 297" style="enable-background:new 0 0 297 297;" xml:space="preserve">
<g id="XMLID_25_">
	<g>
		<polygon style="fill:#2980B9;" points="73.476,248.81 31.216,269.94 24.216,262.93 45.346,220.68 		"/>
		<path style="fill:#99ABD5;" d="M283.786,10.37c1.82,1.82,0.55,15.91-28.18,55.41c-24.14,33.19-59.8,73.83-100.41,114.45
			c-23.68,23.68-48.06,46.3-70.75,65.65l-36.18-36.17c19.37-22.7,41.99-47.08,65.66-70.75c40.61-40.61,81.26-76.27,114.45-100.41
			C267.876,9.82,281.966,8.55,283.786,10.37z"/>
		<path style="fill:#99ABD5;" d="M106.316,88.08v29.99c0,16.53-13.45,29.99-29.98,29.99c-16.54,0-29.99-13.46-29.99-29.99V88.08
			H106.316z"/>
		<path d="M290.736,3.42c5.56,5.56,8.79,18.68-27.18,68.14c-2.03,2.79-4.14,5.63-6.33,8.52v29.96c0,7.68-6.24,13.93-13.92,13.93
			h-3.04v62.67c0,10.71,8.71,19.42,19.42,19.42c16.13,0,29.25,13.12,29.25,29.25v56.77c0,2.72-2.2,4.92-4.92,4.92
			c-2.71,0-4.91-2.2-4.91-4.92v-56.77c0-10.71-8.71-19.42-19.42-19.42c-16.13,0-29.25-13.12-29.25-29.25v-62.67h-9.08
			c-17.76,20.38-37.81,41.8-59.21,63.21c-25.07,25.07-50.94,48.98-74.8,69.14c-0.92,0.77-2.05,1.16-3.17,1.16
			c-1.23,0-2.45-0.47-3.39-1.37c-0.1,0.05-0.18,0.12-0.28,0.18l-48.06,24.02c-0.7,0.35-1.45,0.52-2.2,0.52
			c-1.27,0-2.53-0.49-3.47-1.44l-2.52-2.51l-13.02,13.03c-0.96,0.96-2.22,1.44-3.48,1.44c-1.25,0-2.51-0.48-3.47-1.44
			c-1.92-1.92-1.92-5.03,0-6.95l13.02-13.03l-2.55-2.55c-1.49-1.5-1.86-3.78-0.92-5.67l24.03-48.06c0.05-0.1,0.12-0.19,0.18-0.28
			c-1.73-1.81-1.83-4.64-0.21-6.56c13.39-15.85,28.43-32.57,44.35-49.36c-1.91,0.29-3.86,0.44-5.85,0.44
			c-21.96,0-39.82-17.86-39.82-39.82v-34.9c0-2.72,2.2-4.92,4.92-4.92h69.8c2.71,0,4.91,2.2,4.91,4.92v34.9
			c0,1.76-0.12,3.49-0.35,5.19c38-37.33,75.62-69.99,106.8-92.66C272.056-5.38,285.166-2.14,290.736,3.42z M255.606,65.78
			c28.73-39.5,30-53.59,28.18-55.41s-15.91-0.55-55.41,28.18c-33.19,24.14-73.84,59.8-114.45,100.41
			c-23.67,23.67-46.29,48.05-65.66,70.75l36.18,36.17c22.69-19.35,47.07-41.97,70.75-65.65
			C195.806,139.61,231.466,98.97,255.606,65.78z M247.396,110.04V92.75c-5.5,6.93-11.38,14.08-17.59,21.39h13.5
			C245.556,114.14,247.396,112.3,247.396,110.04z M106.316,118.07V88.08h-59.97v29.99c0,16.53,13.45,29.99,29.99,29.99
			C92.866,148.06,106.316,134.6,106.316,118.07z M31.216,269.94l42.26-21.13l-28.13-28.13l-21.13,42.25L31.216,269.94z"/>
	</g>
</g>
<g>
</g>
<g>
</g>
<g>
</g>
<g>
</g>
<g>
</g>
<g>
</g>
<g>
</g>
<g>
</g>
<g>
</g>
<g>
</g>
<g>
</g>
<g>
</g>
<g>
</g>
<g>
</g>
<g>
</g>
</svg>
