<?xml version="1.0" encoding="iso-8859-1"?>
<!-- Generator: Adobe Illustrator 18.1.1, SVG Export Plug-In . SVG Version: 6.00 Build 0)  -->
<svg xmlns="http://www.w3.org/2000/svg" xmlns:xlink="http://www.w3.org/1999/xlink" version="1.1" id="Capa_1" x="0px" y="0px" viewBox="0 0 456.556 456.556" style="enable-background:new 0 0 456.556 456.556;" xml:space="preserve" width="512px" height="512px">
<g>
	<path d="M443.128,387.251h-429.7C6.015,387.251,0,381.24,0,373.823V82.733c0-7.417,6.015-13.428,13.428-13.428h429.7   c7.413,0,13.428,6.011,13.428,13.428v291.089C456.556,381.24,450.541,387.251,443.128,387.251z M26.856,360.395H429.7V96.161   H26.856V360.395z" fill="#FFFFFF"/>
	<path d="M18.415,328.783c-3.518,0-6.973-1.731-9.029-4.906c-3.217-4.983-1.797-11.634,3.189-14.855l170.02-109.978   c3.511-2.276,8.043-2.294,11.568-0.063l109.733,69.309c5.015,3.168,6.518,9.802,3.35,14.816c-3.175,5.022-9.826,6.515-14.82,3.347   l-103.928-65.64L24.241,327.059C22.436,328.227,20.415,328.783,18.415,328.783z" fill="#FFFFFF"/>
	<path d="M242.65,247.567c-3.546,0-7.022-1.759-9.071-4.98c-3.182-5.004-1.706-11.645,3.301-14.827l117.895-74.967   c3.462-2.214,7.889-2.242,11.393-0.084l78.366,48.229c5.057,3.109,6.63,9.725,3.518,14.778c-3.112,5.064-9.735,6.623-14.778,3.518   l-72.645-44.704l-112.223,71.358C246.623,247.025,244.623,247.567,242.65,247.567z" fill="#FFFFFF"/>
	<path d="M298.16,172.6c-19.296,0-34.997-15.701-34.997-34.997c0-19.299,15.701-35.001,34.997-35.001   c19.303,0,35.004,15.701,35.004,35.001C333.164,156.899,317.463,172.6,298.16,172.6z M298.16,124.088   c-7.448,0-13.512,6.064-13.512,13.516s6.064,13.512,13.512,13.512c7.455,0,13.519-6.06,13.519-13.512   S305.616,124.088,298.16,124.088z" fill="#FFFFFF"/>
</g>
<g>
</g>
<g>
</g>
<g>
</g>
<g>
</g>
<g>
</g>
<g>
</g>
<g>
</g>
<g>
</g>
<g>
</g>
<g>
</g>
<g>
</g>
<g>
</g>
<g>
</g>
<g>
</g>
<g>
</g>
</svg>
