<?xml version="1.0" encoding="UTF-8" standalone="no"?>
<!-- Generator: Adobe Illustrator 19.0.0, SVG Export Plug-In . SVG Version: 6.00 Build 0)  -->

<svg
   xmlns:dc="http://purl.org/dc/elements/1.1/"
   xmlns:cc="http://creativecommons.org/ns#"
   xmlns:rdf="http://www.w3.org/1999/02/22-rdf-syntax-ns#"
   xmlns:svg="http://www.w3.org/2000/svg"
   xmlns="http://www.w3.org/2000/svg"
   xmlns:sodipodi="http://sodipodi.sourceforge.net/DTD/sodipodi-0.dtd"
   xmlns:inkscape="http://www.inkscape.org/namespaces/inkscape"
   version="1.1"
   id="Capa_1"
   x="0px"
   y="0px"
   viewBox="0 0 512 512"
   style="enable-background:new 0 0 512 512;"
   xml:space="preserve"
   sodipodi:docname="fliph.svg"
   inkscape:version="0.92.1 r15371"><metadata
     id="metadata73"><rdf:RDF><cc:Work
         rdf:about=""><dc:format>image/svg+xml</dc:format><dc:type
           rdf:resource="http://purl.org/dc/dcmitype/StillImage" /><dc:title></dc:title></cc:Work></rdf:RDF></metadata><defs
     id="defs71" /><sodipodi:namedview
     pagecolor="#ffffff"
     bordercolor="#666666"
     borderopacity="1"
     objecttolerance="10"
     gridtolerance="10"
     guidetolerance="10"
     inkscape:pageopacity="0"
     inkscape:pageshadow="2"
     inkscape:window-width="1250"
     inkscape:window-height="887"
     id="namedview69"
     showgrid="false"
     inkscape:zoom="0.4609375"
     inkscape:cx="256"
     inkscape:cy="256"
     inkscape:window-x="0"
     inkscape:window-y="0"
     inkscape:window-maximized="0"
     inkscape:current-layer="Capa_1" /><g
     id="g93"
     transform="rotate(90,256,256)"><g
       id="g6"><g
         id="g4"><path
           id="path2"
           d="m 256,0 c -8.284,0 -15,6.716 -15,15 v 70 c 0,8.284 6.716,15 15,15 8.284,0 15,-6.716 15,-15 V 15 C 271,6.716 264.284,0 256,0 Z"
           inkscape:connector-curvature="0" /></g></g><g
       id="g12"><g
         id="g10"><path
           id="path8"
           d="m 256,137 c -8.284,0 -15,6.716 -15,15 v 70 c 0,8.284 6.716,15 15,15 8.284,0 15,-6.716 15,-15 v -70 c 0,-8.284 -6.716,-15 -15,-15 z"
           inkscape:connector-curvature="0" /></g></g><g
       id="g18"><g
         id="g16"><path
           id="path14"
           d="m 256,275 c -8.284,0 -15,6.716 -15,15 v 70 c 0,8.284 6.716,15 15,15 8.284,0 15,-6.716 15,-15 v -70 c 0,-8.284 -6.716,-15 -15,-15 z"
           inkscape:connector-curvature="0" /></g></g><g
       id="g24"><g
         id="g22"><path
           id="path20"
           d="m 256,412 c -8.284,0 -15,6.716 -15,15 v 70 c 0,8.284 6.716,15 15,15 8.284,0 15,-6.716 15,-15 v -70 c 0,-8.284 -6.716,-15 -15,-15 z"
           inkscape:connector-curvature="0" /></g></g><g
       id="g30"><g
         id="g28"><path
           id="path26"
           d="m 179.402,103.503 -120,-36.842 C 54.853,65.263 49.912,66.108 46.085,68.937 42.258,71.765 40,76.241 40,81 v 350 c 0,4.759 2.258,9.235 6.085,12.063 3.841,2.839 8.787,3.668 13.317,2.275 l 120,-36.842 C 185.701,406.563 190,400.745 190,394.157 V 117.842 c 0,-6.588 -4.3,-12.405 -10.598,-14.339 z"
           inkscape:connector-curvature="0" /></g></g><g
       id="g36"><g
         id="g34"><path
           id="path32"
           d="m 465.915,68.937 c -3.826,-2.828 -8.77,-3.673 -13.317,-2.276 l -120,36.842 C 326.299,105.436 322,111.254 322,117.842 v 276.316 c 0,6.588 4.3,12.405 10.598,14.339 l 120,36.842 c 4.566,1.402 9.505,0.541 13.317,-2.276 C 469.742,440.235 472,435.759 472,431 V 81 c 0,-4.759 -2.258,-9.235 -6.085,-12.063 z"
           inkscape:connector-curvature="0" /></g></g></g><g
     id="g38" /><g
     id="g40" /><g
     id="g42" /><g
     id="g44" /><g
     id="g46" /><g
     id="g48" /><g
     id="g50" /><g
     id="g52" /><g
     id="g54" /><g
     id="g56" /><g
     id="g58" /><g
     id="g60" /><g
     id="g62" /><g
     id="g64" /><g
     id="g66" /></svg>