<?xml version="1.0" encoding="UTF-8" standalone="no"?>
<!-- Generator: Adobe Illustrator 19.0.0, SVG Export Plug-In . SVG Version: 6.00 Build 0)  -->

<svg
   xmlns:dc="http://purl.org/dc/elements/1.1/"
   xmlns:cc="http://creativecommons.org/ns#"
   xmlns:rdf="http://www.w3.org/1999/02/22-rdf-syntax-ns#"
   xmlns:svg="http://www.w3.org/2000/svg"
   xmlns="http://www.w3.org/2000/svg"
   xmlns:sodipodi="http://sodipodi.sourceforge.net/DTD/sodipodi-0.dtd"
   xmlns:inkscape="http://www.inkscape.org/namespaces/inkscape"
   version="1.1"
   id="Capa_1"
   x="0px"
   y="0px"
   viewBox="0 0 384 384"
   style="enable-background:new 0 0 384 384;"
   xml:space="preserve"
   sodipodi:docname="grayscale.svg"
   inkscape:version="0.92.1 r15371"><metadata
     id="metadata51"><rdf:RDF><cc:Work
         rdf:about=""><dc:format>image/svg+xml</dc:format><dc:type
           rdf:resource="http://purl.org/dc/dcmitype/StillImage" /><dc:title></dc:title></cc:Work></rdf:RDF></metadata><defs
     id="defs49" /><sodipodi:namedview
     pagecolor="#ffffff"
     bordercolor="#666666"
     borderopacity="1"
     objecttolerance="10"
     gridtolerance="10"
     guidetolerance="10"
     inkscape:pageopacity="0"
     inkscape:pageshadow="2"
     inkscape:window-width="1807"
     inkscape:window-height="1250"
     id="namedview47"
     showgrid="false"
     inkscape:zoom="0.61458333"
     inkscape:cx="192"
     inkscape:cy="192"
     inkscape:window-x="0"
     inkscape:window-y="0"
     inkscape:window-maximized="0"
     inkscape:current-layer="Capa_1" /><circle
     style="fill:#8c8c8c;fill-opacity:1"
     cx="192"
     cy="136"
     r="128"
     id="circle2" /><circle
     style="fill:#707070;fill-opacity:1"
     cx="128"
     cy="248"
     r="128"
     id="circle4" /><circle
     style="fill:#828282;fill-opacity:1"
     cx="256"
     cy="248"
     r="128"
     id="circle6" /><path
     style="fill:#949494;fill-opacity:1"
     d="M128.06,246.766c0.444-46.832,26.05-87.562,63.938-109.51c-18.842-10.915-40.658-17.264-64-17.264  c-23.317,0-45.11,6.334-63.938,17.226C64.506,184.077,90.138,224.828,128.06,246.766z"
     id="path8" /><path
     style="fill:#a0a0a0;fill-opacity:1"
     d="M191.998,137.257c37.889,21.948,63.494,62.678,63.938,109.51c37.922-21.938,63.554-62.69,64-109.547  c-18.828-10.893-40.622-17.226-63.938-17.226C232.657,119.993,210.841,126.342,191.998,137.257z"
     id="path10" /><path
     style="fill:#b5b5b5;fill-opacity:1"
     d="M255.998,247.993c0-0.414-0.058-0.814-0.062-1.226c-18.828,10.893-40.622,17.226-63.938,17.226  s-45.11-6.334-63.938-17.226c-0.004,0.413-0.062,0.813-0.062,1.226c0,47.35,25.778,88.594,64,110.736  C230.222,336.588,255.998,295.343,255.998,247.993z"
     id="path12" /><path
     style="fill:#FFFFFF;"
     d="M191.998,137.257c-37.889,21.948-63.494,62.678-63.938,109.51  c18.828,10.893,40.622,17.226,63.938,17.226s45.11-6.334,63.938-17.226C255.493,199.934,229.887,159.205,191.998,137.257z"
     id="path14" /><g
     id="g16" /><g
     id="g18" /><g
     id="g20" /><g
     id="g22" /><g
     id="g24" /><g
     id="g26" /><g
     id="g28" /><g
     id="g30" /><g
     id="g32" /><g
     id="g34" /><g
     id="g36" /><g
     id="g38" /><g
     id="g40" /><g
     id="g42" /><g
     id="g44" /></svg>