<?xml version="1.0" encoding="iso-8859-1"?>
<!-- Generator: Adobe Illustrator 19.0.0, SVG Export Plug-In . SVG Version: 6.00 Build 0)  -->
<svg version="1.1" id="Capa_1" xmlns="http://www.w3.org/2000/svg" xmlns:xlink="http://www.w3.org/1999/xlink" x="0px" y="0px"
	 viewBox="0 0 384 384" style="enable-background:new 0 0 384 384;" xml:space="preserve">
<circle style="fill:#EB4A2D;" cx="192" cy="136" r="128"/>
<circle style="fill:#355FAA;" cx="128" cy="248" r="128"/>
<circle style="fill:#88C341;" cx="256" cy="248" r="128"/>
<path style="fill:#B673AE;" d="M128.06,246.766c0.444-46.832,26.05-87.562,63.938-109.51c-18.842-10.915-40.658-17.264-64-17.264
	c-23.317,0-45.11,6.334-63.938,17.226C64.506,184.077,90.138,224.828,128.06,246.766z"/>
<path style="fill:#F9EB47;" d="M191.998,137.257c37.889,21.948,63.494,62.678,63.938,109.51c37.922-21.938,63.554-62.69,64-109.547
	c-18.828-10.893-40.622-17.226-63.938-17.226C232.657,119.993,210.841,126.342,191.998,137.257z"/>
<path style="fill:#8BD1DE;" d="M255.998,247.993c0-0.414-0.058-0.814-0.062-1.226c-18.828,10.893-40.622,17.226-63.938,17.226
	s-45.11-6.334-63.938-17.226c-0.004,0.413-0.062,0.813-0.062,1.226c0,47.35,25.778,88.594,64,110.736
	C230.222,336.588,255.998,295.343,255.998,247.993z"/>
<path style="fill:#FFFFFF;" d="M191.998,137.257c-37.889,21.948-63.494,62.678-63.938,109.51
	c18.828,10.893,40.622,17.226,63.938,17.226s45.11-6.334,63.938-17.226C255.493,199.934,229.887,159.205,191.998,137.257z"/>
<g>
</g>
<g>
</g>
<g>
</g>
<g>
</g>
<g>
</g>
<g>
</g>
<g>
</g>
<g>
</g>
<g>
</g>
<g>
</g>
<g>
</g>
<g>
</g>
<g>
</g>
<g>
</g>
<g>
</g>
</svg>
